<svg width="16" height="17" viewBox="0 0 16 17" fill="none" xmlns="http://www.w3.org/2000/svg">
<path d="M10.6248 12.175L14.7588 16.309C15.0427 16.5929 15.5031 16.5929 15.787 16.309C16.0709 16.025 16.0709 15.5647 15.787 15.2807L11.653 11.1467L10.6248 12.175Z" fill="white"/>
<path d="M6.54461 13.6112C10.1591 13.6112 13.0892 10.6811 13.0892 7.06658C13.0892 3.45209 10.1591 0.521973 6.54461 0.521973C2.93012 0.521973 0 3.45209 0 7.06658C0 10.6811 2.93012 13.6112 6.54461 13.6112ZM6.54461 12.884C3.33173 12.884 0.727179 10.2795 0.727179 7.06658C0.727179 3.8537 3.33173 1.24915 6.54461 1.24915C9.75748 1.24915 12.362 3.8537 12.362 7.06658C12.362 10.2795 9.75748 12.884 6.54461 12.884Z" fill="white"/>
</svg>
