<svg width="55" height="64" viewBox="0 0 55 64" fill="none" xmlns="http://www.w3.org/2000/svg">
<path d="M32.0235 64C45.5232 64 54.2609 56.5932 54.2609 45.3721C54.2609 36.9009 47.1397 30.3811 38.6205 30.1594V29.8046C45.9164 28.8732 51.4211 23.3292 51.4211 15.9667C51.4211 5.98753 43.8631 0 30.975 0H0V64H32.0235ZM18.5238 12.9064H25.9509C30.6255 12.9064 33.4216 15.3015 33.4216 19.2488C33.4216 23.1074 30.4507 25.6355 25.6887 25.6355H18.5238V12.9064ZM18.5238 51.0936V36.413H26.5625C32.1109 36.413 35.4312 39.0742 35.4312 43.6424C35.4312 48.4768 32.1546 51.0936 26.4314 51.0936H18.5238Z" fill="#15293E"/>
</svg>
