<svg width="59" height="64" viewBox="0 0 59 64" fill="none" xmlns="http://www.w3.org/2000/svg">
<path fill-rule="evenodd" clip-rule="evenodd" d="M5.68889 22.0444V57.6C5.68889 61.1285 8.56036 64 12.0889 64H46.2222C49.7508 64 52.6222 61.1285 52.6222 57.6V22.0444H51.2V57.6C51.2 60.3449 48.9671 62.5778 46.2222 62.5778H12.0889C9.344 62.5778 7.11111 60.3449 7.11111 57.6V22.0444H5.68889ZM1.42222 14.9333C1.42222 12.1884 3.65511 9.95556 6.4 9.95556H51.9111C54.656 9.95556 56.8889 12.1884 56.8889 14.9333V22.0444H58.3111V14.9333C58.3111 11.4048 55.4396 8.53333 51.9111 8.53333H38.4V3.55556C38.4 1.59573 36.8043 0 34.8444 0H23.4667C22.524 0.00112914 21.6203 0.376094 20.9538 1.04265C20.2872 1.7092 19.9122 2.61291 19.9111 3.55556V8.53333H6.4C4.70319 8.53522 3.07642 9.2101 1.8766 10.4099C0.67677 11.6098 0.00188221 13.2365 0 14.9333L0 22.0444H1.42222V14.9333ZM21.3333 3.55556C21.3333 2.37938 22.2905 1.42222 23.4667 1.42222H34.8444C36.0206 1.42222 36.9778 2.37938 36.9778 3.55556V8.53333H21.3333V3.55556Z" fill="#0B1F35"/>
<path opacity="0.3" fill-rule="evenodd" clip-rule="evenodd" d="M18.4889 25.6H24.1778V51.2H18.4889V25.6ZM34.1333 25.6H39.8222V51.2H34.1333V25.6Z" fill="#0B1F35"/>
</svg>
