<svg width="64" height="75" viewBox="0 0 64 75" fill="none" xmlns="http://www.w3.org/2000/svg">
<g filter="url(#filter0_d)">
<path fill-rule="evenodd" clip-rule="evenodd" d="M23.047 38.57C22.7458 38.2857 22.2711 38.2994 21.9868 38.6006C21.7025 38.9019 21.7162 39.3766 22.0175 39.6609L31.8239 48.9164C32.1129 49.1891 32.5645 49.1891 32.8535 48.9164L42.6599 39.6609C42.9612 39.3766 42.9749 38.9019 42.6906 38.6006C42.4063 38.2994 41.9316 38.2857 41.6304 38.57L33.0887 46.6318V46.4149V46.3818V46.3484V46.3146V46.2804V46.2459V46.211V46.1758V46.1402V46.1043V46.068V45.9943V45.957V45.9193V45.8812V45.8428V45.8041V45.765V45.6857V45.6455V45.605V45.5642V45.523V45.4814V45.4395V45.3972V45.3546V45.3117V45.2684V45.2247V45.1807V45.1364V45.0917V45.0467V45.0013V44.9556V44.9096V44.8632V44.8164V44.7693V44.7219V44.6741V44.626V44.5775V44.5287V44.4796V44.4301V44.3803V44.3302V44.2288V44.1776V44.1261V44.0743V44.0221V43.9696V43.9167V43.8635V43.81V43.5925V43.1415V42.6694V42.4254V42.3636V42.3015V42.239V42.1762V42.1131V42.0497V41.9859V41.9218V41.8574V41.7927V41.7277V41.6623V41.5966V41.5306V41.4642V41.3976V41.3306V41.2633V41.1957V41.1277V41.0594V40.9909V40.922V40.8528V40.7832V40.7134V40.6432V40.5727V40.5019V40.4308V40.3594V40.2876V40.2156V40.1432V40.0705V39.9975V39.9242V39.8505V39.7766V39.7023V39.6278V39.5529V39.4777V39.4022V39.3264V39.2503V39.1738V39.0971V39.0201V38.9427V38.865V38.7871V36.1317V33.1739V33.0767V32.9792V32.8815V32.7835V32.6851V32.5866V32.4877V32.3885V32.2891V32.1894V32.0894V31.9891V31.8886V31.7877V31.6866V31.5853V31.4836V31.3816V31.2794V31.1769V31.0742V30.9711V30.8678V30.7642V30.6603V30.5562V30.4518V30.3471V30.2421V30.1369V30.0313V29.9256V29.8195V29.7132V29.6066V29.4997V29.3926V29.2851V29.1775V29.0695V28.9613V28.8528V28.7441V28.635V28.5257V28.4162V28.3064V28.1963V28.0859V27.9753V27.8644V27.7533V27.6419V27.5302V27.4182V27.306V27.1936V27.0808V26.9678V26.8546V26.7411V26.6273V26.5132V26.399V26.2844V26.1696V26.0545V25.9392V25.8236V25.7077V25.5916V25.4752V25.3586V25.2417V25.1246V25.0072V24.8896V24.7717V24.6535V24.5351V24.4164V24.2975V24.1783V24.0589V23.9392V23.8193V23.6991V23.5787V23.458V23.337V23.2159V23.0944V22.9727V22.8508V22.7286V22.6062V22.4835V22.3606V22.2374V22.114V21.9903V21.8664V21.7422V21.6178V21.4932V21.3683V21.2431V21.1178V20.6138V18.5594V17.5094V16.9788V16.8456V16.7121V16.5784V16.4445V14.2707V14.1329V13.9949V13.8567V13.7182V13.5795V13.4406V13.1621V12.0394V11.4728V11.1882V11.0456V10.9027V10.7597V10.6164V10.4729V10.3292V10.1853V10.0411V9.89678V9.75222V8.58813V8.44167V8.295V8.14812V8.00104V7.85374V7.70624V7.55853V7.41061V5.01611C33.0887 4.6019 32.7529 4.26611 32.3387 4.26611C31.9245 4.26611 31.5887 4.6019 31.5887 5.01611V7.41061V7.55853V7.70624V7.85374V8.00104V8.14812V8.295V8.44167V8.58813V9.75222V9.89678V10.0411V10.1853V10.3292V10.4729V10.6164V10.7597V10.9027V11.0456V11.1882V11.4728V12.0394V13.1621V13.4406V13.5795V13.7182V13.8567V13.9949V14.1329V14.2707V14.4083V14.5456V14.6827V14.8196V14.9563V15.0927V15.3649V15.6362V15.7715V15.9065V16.0414V16.176V16.3104V16.4445V16.5784V16.7121V16.8456V16.9788V17.5094V18.5594V20.6138V21.1178V21.2431V21.3683V21.4932V21.6178V21.7422V21.8664V21.9903V22.114V22.2374V22.3606V22.4835V22.6062V22.7286V22.8508V22.9727V23.0944V23.2159V23.337V23.458V23.5787V23.6991V23.8193V23.9392V24.0589V24.1783V24.2975V24.4164V24.5351V24.6535V24.7717V24.8896V25.0072V25.1246V25.2417V25.3586V25.4752V25.5916V25.7077V25.8236V25.9392V26.0545V26.1696V26.2844V26.399V26.5132V26.6273V26.7411V26.8546V26.9678V27.0808V27.1936V27.306V27.4182V27.5302V27.6419V27.7533V27.8644V27.9753V28.0859V28.1963V28.3064V28.4162V28.5257V28.635V28.7441V28.8528V28.9613V29.0695V29.1775V29.2851V29.3926V29.4997V29.6066V29.7132V29.8195V29.9256V30.0313V30.1369V30.2421V30.3471V30.4518V30.5562V30.6603V30.7642V30.8678V30.9711V31.0742V31.1769V31.2794V31.3816V31.4836V31.5853V31.6866V31.7877V31.8886V31.9891V32.0894V32.1894V32.2891V32.3885V32.4877V32.5866V32.6851V32.7835V32.8815V32.9792V33.0767V33.1739V33.2708V33.3674V33.4637V33.5597V33.6555V33.7509V33.8461V33.941V34.0356V34.13V34.224V34.3177V34.6899V35.0573V35.1485V35.2393V35.3299V35.4202V35.5101V35.5998V35.6892V35.7783V35.8671V35.9556V36.0438V36.1317V36.2194V36.3067V36.3937V36.4804V36.5669V36.653V36.7389V36.8244V36.9097V36.9946V37.0793V37.1636V37.498V37.8275V37.9092V37.9905V38.0715V38.1523V38.2327V38.3128V38.3926V38.4721V38.5513V38.6302V38.7088V38.7871V38.865V38.9427V39.0201V39.0971V39.1738V39.2503V39.3264V39.4022V39.4777V39.5529V39.6278V39.7023V39.7766V39.8505V39.9242V39.9975V40.0705V40.1432V40.2156V40.2876V40.3594V40.4308V40.5019V40.5727V40.6432V40.7134V40.7832V40.8528V40.922V40.9909V41.0594V41.1277V44.8164V44.8632V44.9096V44.9556V45.0013V45.0917V45.1364V45.1807V45.2247V45.2684V45.3117V45.3546V45.4395V45.4814V45.523V45.5642V45.605V45.6455V45.6857V45.765V45.8041V45.8428V45.8812V45.9193V45.957V45.9943V46.0313V46.068V46.1043V46.1402V46.1758V46.211V46.2459V46.2804V46.3146V46.3484V46.3818V46.4149V46.6318L23.047 38.57ZM52.3693 27.8327C55.2116 31.8961 56.879 36.8409 56.879 42.1774C56.879 56.0157 45.6609 67.2339 31.8226 67.2339C17.9843 67.2339 6.76611 56.0157 6.76611 42.1774C6.76611 36.8409 8.43354 31.8961 11.2758 27.8327L10.0467 26.9729C7.03383 31.2802 5.26611 36.5235 5.26611 42.1774C5.26611 56.8441 17.1558 68.7339 31.8226 68.7339C46.4893 68.7339 58.379 56.8441 58.379 42.1774C58.379 36.5235 56.6113 31.2802 53.5984 26.9729L52.3693 27.8327Z" fill="white"/>
</g>
<defs>
<filter id="filter0_d" x="0.266113" y="0.266113" width="63.1129" height="74.4677" filterUnits="userSpaceOnUse" color-interpolation-filters="sRGB">
<feFlood flood-opacity="0" result="BackgroundImageFix"/>
<feColorMatrix in="SourceAlpha" type="matrix" values="0 0 0 0 0 0 0 0 0 0 0 0 0 0 0 0 0 0 127 0"/>
<feOffset dy="1"/>
<feGaussianBlur stdDeviation="2.5"/>
<feColorMatrix type="matrix" values="0 0 0 0 0 0 0 0 0 0 0 0 0 0 0 0 0 0 0.2 0"/>
<feBlend mode="normal" in2="BackgroundImageFix" result="effect1_dropShadow"/>
<feBlend mode="normal" in="SourceGraphic" in2="effect1_dropShadow" result="shape"/>
</filter>
</defs>
</svg>
