<svg width="74" height="45" viewBox="0 0 74 45" fill="none" xmlns="http://www.w3.org/2000/svg">
<g filter="url(#filter0_d)">
<path d="M27.0106 36.1245H30.9612L19.8409 6.0238H16.1202L5 36.1245H8.95061L11.9815 27.5094H23.9797L27.0106 36.1245ZM17.9179 10.5921H18.0433L22.8718 24.3178H13.0894L17.9179 10.5921Z" fill="white"/>
<path d="M41.0154 33.4127C38.4025 33.4127 36.6676 32.0568 36.6676 29.9917C36.6676 27.9475 38.3398 26.6541 41.2662 26.4664L47.0772 26.1118V27.8849C47.0772 31.0138 44.4434 33.4127 41.0154 33.4127ZM40.2002 36.5C43.1266 36.5 45.8857 34.8729 47.1817 32.3906H47.2653V36.1245H50.7143V21.1263C50.7143 16.8083 47.4952 14.0548 42.395 14.0548C37.2529 14.0548 34.0339 16.9335 33.783 20.6882H37.2947C37.7546 18.5605 39.5104 17.2464 42.3114 17.2464C45.3214 17.2464 47.0772 18.8317 47.0772 21.4809V23.2957L40.8482 23.6503C35.8315 23.9424 32.9678 26.2787 32.9678 29.9917C32.9678 33.8925 35.8733 36.5 40.2002 36.5Z" fill="white"/>
</g>
<g filter="url(#filter1_d)">
<path fill-rule="evenodd" clip-rule="evenodd" d="M53.7619 5.50793L53.7618 5.00793L53.7619 4.50793H53.7621H53.7628H53.7656H53.7766H53.8198L53.9847 4.50794L54.5803 4.50794L56.4523 4.50796L59.857 4.50793C60.311 4.50791 60.6177 4.76448 60.8103 5.03649C60.9908 5.2916 61.1079 5.60878 61.1953 5.85873C61.2134 5.91042 61.2302 5.95936 61.2462 6.00574L61.2463 6.00594L61.2464 6.00609C61.2968 6.15227 61.3384 6.27298 61.3809 6.37381C61.4233 6.27298 61.465 6.15228 61.5154 6.0061C61.5314 5.95962 61.5484 5.91056 61.5665 5.85874C61.6539 5.60879 61.7709 5.29162 61.9515 5.0365C62.1441 4.76449 62.4507 4.50792 62.9047 4.50793L66.3094 4.50795L68.1815 4.50794L68.7771 4.50793H68.9419H68.9851H68.9962H68.999H68.9997H68.9999L68.9999 5.00793L68.9999 5.50793H68.9997H68.999H68.9962H68.9851L68.9419 5.50793L68.7771 5.50794L68.1815 5.50794L66.3095 5.50795L62.9047 5.50793L62.9032 5.50793C62.8808 5.50787 62.8431 5.50777 62.7677 5.61427C62.6786 5.7401 62.6006 5.93086 62.5104 6.18885C62.4976 6.22548 62.4843 6.26427 62.4705 6.30455C62.3994 6.51218 62.3147 6.75949 62.2121 6.95473C62.1482 7.07631 62.0431 7.24447 61.8809 7.3693V35.1545C62.0431 35.2793 62.1482 35.4475 62.2121 35.5691C62.3147 35.7643 62.3994 36.0116 62.4705 36.2192C62.4843 36.2595 62.4976 36.2983 62.5104 36.3349C62.6006 36.5929 62.6786 36.7837 62.7677 36.9095C62.8431 37.016 62.8808 37.0159 62.9031 37.0159L62.9047 37.0159L66.3095 37.0158L68.1815 37.0158L68.7771 37.0158L68.9419 37.0159H68.9851H68.9962H68.999H68.9997H68.9999L68.9999 37.5159L68.9999 38.0159H68.9997H68.999H68.9962H68.9851H68.9419L68.7771 38.0158L68.1815 38.0158L66.3094 38.0158L62.9047 38.0159C62.4507 38.0159 62.1441 37.7593 61.9515 37.4873C61.7709 37.2322 61.6539 36.915 61.5665 36.6651C61.5484 36.6132 61.5314 36.5642 61.5154 36.5177C61.465 36.3715 61.4233 36.2508 61.3809 36.15C61.3384 36.2508 61.2968 36.3715 61.2464 36.5177C61.2303 36.5642 61.2134 36.6132 61.1953 36.665C61.1079 36.915 60.9908 37.2322 60.8103 37.4873C60.6177 37.7593 60.3111 38.0159 59.8571 38.0159L56.4523 38.0158L54.5803 38.0158H53.9847L53.8198 38.0159H53.7766H53.7656H53.7628H53.7621H53.7619L53.7618 37.5159L53.7619 37.0159H53.7621H53.7628H53.7656H53.7766H53.8198L53.9847 37.0158H54.5803L56.4523 37.0158L59.8571 37.0159L59.8586 37.0159C59.881 37.0159 59.9187 37.016 59.9941 36.9095C60.0831 36.7837 60.1611 36.5929 60.2513 36.3349C60.2642 36.2983 60.2774 36.2595 60.2912 36.2192C60.3624 36.0116 60.4471 35.7643 60.5497 35.5691C60.6135 35.4475 60.7187 35.2793 60.8809 35.1545V7.3693C60.7187 7.24447 60.6135 7.0763 60.5497 6.95472C60.4471 6.75949 60.3624 6.51218 60.2912 6.30455C60.2774 6.26426 60.2642 6.22547 60.2513 6.18884C60.1611 5.93084 60.0831 5.74008 59.9941 5.61426C59.9187 5.50777 59.881 5.50787 59.8586 5.50793L59.8571 5.50793L56.4523 5.50796L54.5803 5.50794L53.9847 5.50794L53.8198 5.50794L53.7766 5.50793L53.7656 5.50793H53.7628H53.7621H53.7619ZM61.2702 6.57789C61.2702 6.5776 61.272 6.57545 61.2757 6.57231C61.2721 6.5766 61.2702 6.57818 61.2702 6.57789ZM61.4861 6.57231C61.4898 6.57545 61.4916 6.5776 61.4915 6.57789C61.4915 6.57818 61.4897 6.5766 61.4861 6.57231ZM61.4915 35.9459C61.4916 35.9462 61.4898 35.9483 61.4861 35.9515C61.4897 35.9472 61.4915 35.9456 61.4915 35.9459ZM61.2757 35.9515C61.2738 35.9498 61.2724 35.9485 61.2715 35.9475C61.2706 35.9466 61.2702 35.946 61.2702 35.9459C61.2702 35.9456 61.2721 35.9472 61.2757 35.9515Z" fill="white"/>
</g>
<defs>
<filter id="filter0_d" x="0" y="2.0238" width="55.7143" height="40.4762" filterUnits="userSpaceOnUse" color-interpolation-filters="sRGB">
<feFlood flood-opacity="0" result="BackgroundImageFix"/>
<feColorMatrix in="SourceAlpha" type="matrix" values="0 0 0 0 0 0 0 0 0 0 0 0 0 0 0 0 0 0 127 0"/>
<feOffset dy="1"/>
<feGaussianBlur stdDeviation="2.5"/>
<feColorMatrix type="matrix" values="0 0 0 0 0 0 0 0 0 0 0 0 0 0 0 0 0 0 0.2 0"/>
<feBlend mode="normal" in2="BackgroundImageFix" result="effect1_dropShadow"/>
<feBlend mode="normal" in="SourceGraphic" in2="effect1_dropShadow" result="shape"/>
</filter>
<filter id="filter1_d" x="48.7618" y="0.507935" width="25.2381" height="43.5079" filterUnits="userSpaceOnUse" color-interpolation-filters="sRGB">
<feFlood flood-opacity="0" result="BackgroundImageFix"/>
<feColorMatrix in="SourceAlpha" type="matrix" values="0 0 0 0 0 0 0 0 0 0 0 0 0 0 0 0 0 0 127 0"/>
<feOffset dy="1"/>
<feGaussianBlur stdDeviation="2.5"/>
<feColorMatrix type="matrix" values="0 0 0 0 0 0 0 0 0 0 0 0 0 0 0 0 0 0 0.2 0"/>
<feBlend mode="normal" in2="BackgroundImageFix" result="effect1_dropShadow"/>
<feBlend mode="normal" in="SourceGraphic" in2="effect1_dropShadow" result="shape"/>
</filter>
</defs>
</svg>
