<svg width="69" height="74" viewBox="0 0 69 74" fill="none" xmlns="http://www.w3.org/2000/svg">
<g filter="url(#filter0_d)">
<path fill-rule="evenodd" clip-rule="evenodd" d="M10.6889 26.0444V61.6C10.6889 65.1285 13.5604 68 17.0889 68H51.2222C54.7508 68 57.6222 65.1285 57.6222 61.6V26.0444H56.2V61.6C56.2 64.3449 53.9671 66.5778 51.2222 66.5778H17.0889C14.344 66.5778 12.1111 64.3449 12.1111 61.6V26.0444H10.6889ZM6.42222 18.9333C6.42222 16.1884 8.65511 13.9556 11.4 13.9556H56.9111C59.656 13.9556 61.8889 16.1884 61.8889 18.9333V26.0444H63.3111V18.9333C63.3111 15.4048 60.4396 12.5333 56.9111 12.5333H43.4V7.55556C43.4 5.59573 41.8043 4 39.8444 4H28.4667C27.524 4.00113 26.6203 4.37609 25.9538 5.04265C25.2872 5.7092 24.9122 6.61291 24.9111 7.55556V12.5333H11.4C9.70319 12.5352 8.07642 13.2101 6.8766 14.4099C5.67677 15.6098 5.00188 17.2365 5 18.9333L5 26.0444H6.42222V18.9333ZM26.3333 7.55556C26.3333 6.37938 27.2905 5.42222 28.4667 5.42222H39.8444C41.0206 5.42222 41.9778 6.37938 41.9778 7.55556V12.5333H26.3333V7.55556Z" fill="white"/>
</g>
<g filter="url(#filter1_d)">
<path fill-rule="evenodd" clip-rule="evenodd" d="M23.4889 29.6H29.1778V55.2H23.4889V29.6ZM39.1333 29.6H44.8222V55.2H39.1333V29.6Z" fill="white"/>
</g>
<defs>
<filter id="filter0_d" x="0" y="0" width="68.3111" height="74" filterUnits="userSpaceOnUse" color-interpolation-filters="sRGB">
<feFlood flood-opacity="0" result="BackgroundImageFix"/>
<feColorMatrix in="SourceAlpha" type="matrix" values="0 0 0 0 0 0 0 0 0 0 0 0 0 0 0 0 0 0 127 0"/>
<feOffset dy="1"/>
<feGaussianBlur stdDeviation="2.5"/>
<feColorMatrix type="matrix" values="0 0 0 0 0 0 0 0 0 0 0 0 0 0 0 0 0 0 0.2 0"/>
<feBlend mode="normal" in2="BackgroundImageFix" result="effect1_dropShadow"/>
<feBlend mode="normal" in="SourceGraphic" in2="effect1_dropShadow" result="shape"/>
</filter>
<filter id="filter1_d" x="18.4889" y="25.6" width="31.3333" height="35.6" filterUnits="userSpaceOnUse" color-interpolation-filters="sRGB">
<feFlood flood-opacity="0" result="BackgroundImageFix"/>
<feColorMatrix in="SourceAlpha" type="matrix" values="0 0 0 0 0 0 0 0 0 0 0 0 0 0 0 0 0 0 127 0"/>
<feOffset dy="1"/>
<feGaussianBlur stdDeviation="2.5"/>
<feColorMatrix type="matrix" values="0 0 0 0 0 0 0 0 0 0 0 0 0 0 0 0 0 0 0.2 0"/>
<feBlend mode="normal" in2="BackgroundImageFix" result="effect1_dropShadow"/>
<feBlend mode="normal" in="SourceGraphic" in2="effect1_dropShadow" result="shape"/>
</filter>
</defs>
</svg>
