<svg width="65" height="74" viewBox="0 0 65 74" fill="none" xmlns="http://www.w3.org/2000/svg">
<g filter="url(#filter0_d)">
<path d="M37.0235 68C50.5232 68 59.2609 60.5932 59.2609 49.3721C59.2609 40.9009 52.1397 34.3811 43.6205 34.1594V33.8046C50.9164 32.8732 56.4211 27.3292 56.4211 19.9667C56.4211 9.98753 48.8631 4 35.975 4H5V68H37.0235ZM23.5238 16.9064H30.9509C35.6255 16.9064 38.4216 19.3015 38.4216 23.2488C38.4216 27.1074 35.4507 29.6355 30.6887 29.6355H23.5238V16.9064ZM23.5238 55.0936V40.413H31.5625C37.1109 40.413 40.4312 43.0742 40.4312 47.6424C40.4312 52.4768 37.1546 55.0936 31.4314 55.0936H23.5238Z" fill="white"/>
</g>
<defs>
<filter id="filter0_d" x="0" y="0" width="64.2609" height="74" filterUnits="userSpaceOnUse" color-interpolation-filters="sRGB">
<feFlood flood-opacity="0" result="BackgroundImageFix"/>
<feColorMatrix in="SourceAlpha" type="matrix" values="0 0 0 0 0 0 0 0 0 0 0 0 0 0 0 0 0 0 127 0"/>
<feOffset dy="1"/>
<feGaussianBlur stdDeviation="2.5"/>
<feColorMatrix type="matrix" values="0 0 0 0 0 0 0 0 0 0 0 0 0 0 0 0 0 0 0.2 0"/>
<feBlend mode="normal" in2="BackgroundImageFix" result="effect1_dropShadow"/>
<feBlend mode="normal" in="SourceGraphic" in2="effect1_dropShadow" result="shape"/>
</filter>
</defs>
</svg>
