<svg width="78" height="78" viewBox="0 0 78 78" fill="none" xmlns="http://www.w3.org/2000/svg">
<g filter="url(#filter0_d)">
<path fill-rule="evenodd" clip-rule="evenodd" d="M67.2655 38C67.2655 53.7401 54.5056 66.5 38.7655 66.5C23.0254 66.5 10.2655 53.7401 10.2655 38C10.2655 22.2599 23.0254 9.5 38.7655 9.5C42.9655 30.5 67.2655 38 67.2655 38ZM27.9655 34.5C30.1746 34.5 31.9655 32.7091 31.9655 30.5C31.9655 28.2909 30.1746 26.5 27.9655 26.5C25.7563 26.5 23.9655 28.2909 23.9655 30.5C23.9655 32.7091 25.7563 34.5 27.9655 34.5ZM36.4586 43.6429L46.653 34.4062L56.9655 49.5H42.528H36.3405H24.653L33.5905 40.875L36.4586 43.6429Z" fill="white"/>
</g>
<g filter="url(#filter1_d)">
<path d="M71 38C71 55.6731 56.6731 70 39 70C21.3269 70 6.99999 55.6731 6.99999 38C6.99999 20.3269 21.3269 6 39 6M71 38L39 6M71 38C61 38 39 23.5 39 6" stroke="white" stroke-width="1.5"/>
</g>
<path d="M69.5 37.5L39.5 7.5C39.5 7.5 39 15.5 49 26C59 36.5 69.5 37.5 69.5 37.5Z" fill="white"/>
<defs>
<filter id="filter0_d" x="5.2655" y="5.5" width="67" height="67" filterUnits="userSpaceOnUse" color-interpolation-filters="sRGB">
<feFlood flood-opacity="0" result="BackgroundImageFix"/>
<feColorMatrix in="SourceAlpha" type="matrix" values="0 0 0 0 0 0 0 0 0 0 0 0 0 0 0 0 0 0 127 0"/>
<feOffset dy="1"/>
<feGaussianBlur stdDeviation="2.5"/>
<feColorMatrix type="matrix" values="0 0 0 0 0 0 0 0 0 0 0 0 0 0 0 0 0 0 0.2 0"/>
<feBlend mode="normal" in2="BackgroundImageFix" result="effect1_dropShadow"/>
<feBlend mode="normal" in="SourceGraphic" in2="effect1_dropShadow" result="shape"/>
</filter>
<filter id="filter1_d" x="0.25" y="0.25" width="77.5" height="77.5" filterUnits="userSpaceOnUse" color-interpolation-filters="sRGB">
<feFlood flood-opacity="0" result="BackgroundImageFix"/>
<feColorMatrix in="SourceAlpha" type="matrix" values="0 0 0 0 0 0 0 0 0 0 0 0 0 0 0 0 0 0 127 0"/>
<feOffset dy="1"/>
<feGaussianBlur stdDeviation="3"/>
<feColorMatrix type="matrix" values="0 0 0 0 0 0 0 0 0 0 0 0 0 0 0 0 0 0 0.25 0"/>
<feBlend mode="normal" in2="BackgroundImageFix" result="effect1_dropShadow"/>
<feBlend mode="normal" in="SourceGraphic" in2="effect1_dropShadow" result="shape"/>
</filter>
</defs>
</svg>
