<svg width="84" height="55" viewBox="0 0 84 55" fill="none" xmlns="http://www.w3.org/2000/svg">
<g filter="url(#filter0_d)">
<path d="M32.0106 41.1245H35.9612L24.8409 11.0238H21.1202L10 41.1245H13.9506L16.9815 32.5094H28.9797L32.0106 41.1245ZM22.9179 15.5921H23.0433L27.8718 29.3178H18.0894L22.9179 15.5921Z" fill="white"/>
<path d="M46.0154 38.4127C43.4025 38.4127 41.6676 37.0568 41.6676 34.9917C41.6676 32.9475 43.3398 31.6541 46.2662 31.4664L52.0772 31.1118V32.8849C52.0772 36.0138 49.4434 38.4127 46.0154 38.4127ZM45.2002 41.5C48.1266 41.5 50.8857 39.8729 52.1817 37.3906H52.2653V41.1245H55.7143V26.1263C55.7143 21.8083 52.4952 19.0548 47.395 19.0548C42.2529 19.0548 39.0339 21.9335 38.783 25.6882H42.2947C42.7546 23.5605 44.5104 22.2464 47.3114 22.2464C50.3214 22.2464 52.0772 23.8317 52.0772 26.4809V28.2957L45.8482 28.6503C40.8315 28.9424 37.9678 31.2787 37.9678 34.9917C37.9678 38.8925 40.8733 41.5 45.2002 41.5Z" fill="white"/>
</g>
<g filter="url(#filter1_d)">
<path fill-rule="evenodd" clip-rule="evenodd" d="M58.7619 10.5079L58.7618 10.0079L58.7619 9.50793H58.7621H58.7628H58.7656H58.7766H58.8198L58.9847 9.50794L59.5803 9.50794L61.4523 9.50796L64.857 9.50793C65.311 9.50791 65.6177 9.76448 65.8103 10.0365C65.9908 10.2916 66.1079 10.6088 66.1953 10.8587C66.2134 10.9104 66.2302 10.9594 66.2462 11.0057L66.2463 11.0059L66.2464 11.0061C66.2968 11.1523 66.3384 11.273 66.3809 11.3738C66.4233 11.273 66.465 11.1523 66.5154 11.0061C66.5314 10.9596 66.5484 10.9106 66.5665 10.8587C66.6539 10.6088 66.7709 10.2916 66.9515 10.0365C67.1441 9.76449 67.4507 9.50792 67.9047 9.50793L71.3094 9.50795L73.1815 9.50794L73.7771 9.50793H73.9419H73.9851H73.9962H73.999H73.9997H73.9999L73.9999 10.0079L73.9999 10.5079H73.9997H73.999H73.9962H73.9851L73.9419 10.5079L73.7771 10.5079L73.1815 10.5079L71.3095 10.5079L67.9047 10.5079L67.9032 10.5079C67.8808 10.5079 67.8431 10.5078 67.7677 10.6143C67.6786 10.7401 67.6006 10.9309 67.5104 11.1889C67.4976 11.2255 67.4843 11.2643 67.4705 11.3045C67.3994 11.5122 67.3147 11.7595 67.2121 11.9547C67.1482 12.0763 67.0431 12.2445 66.8809 12.3693V40.1545C67.0431 40.2793 67.1482 40.4475 67.2121 40.5691C67.3147 40.7643 67.3994 41.0116 67.4705 41.2192C67.4843 41.2595 67.4976 41.2983 67.5104 41.3349C67.6006 41.5929 67.6786 41.7837 67.7677 41.9095C67.8431 42.016 67.8808 42.0159 67.9031 42.0159L67.9047 42.0159L71.3095 42.0158L73.1815 42.0158L73.7771 42.0158L73.9419 42.0159H73.9851H73.9962H73.999H73.9997H73.9999L73.9999 42.5159L73.9999 43.0159H73.9997H73.999H73.9962H73.9851H73.9419L73.7771 43.0158L73.1815 43.0158L71.3094 43.0158L67.9047 43.0159C67.4507 43.0159 67.1441 42.7593 66.9515 42.4873C66.7709 42.2322 66.6539 41.915 66.5665 41.6651C66.5484 41.6132 66.5314 41.5642 66.5154 41.5177C66.465 41.3715 66.4233 41.2508 66.3809 41.15C66.3384 41.2508 66.2968 41.3715 66.2464 41.5177C66.2303 41.5642 66.2134 41.6132 66.1953 41.665C66.1079 41.915 65.9908 42.2322 65.8103 42.4873C65.6177 42.7593 65.3111 43.0159 64.8571 43.0159L61.4523 43.0158L59.5803 43.0158H58.9847L58.8198 43.0159H58.7766H58.7656H58.7628H58.7621H58.7619L58.7618 42.5159L58.7619 42.0159H58.7621H58.7628H58.7656H58.7766H58.8198L58.9847 42.0158H59.5803L61.4523 42.0158L64.8571 42.0159L64.8586 42.0159C64.881 42.0159 64.9187 42.016 64.9941 41.9095C65.0831 41.7837 65.1611 41.5929 65.2513 41.3349C65.2642 41.2983 65.2774 41.2595 65.2912 41.2192C65.3624 41.0116 65.4471 40.7643 65.5497 40.5691C65.6135 40.4475 65.7187 40.2793 65.8809 40.1545V12.3693C65.7187 12.2445 65.6135 12.0763 65.5497 11.9547C65.4471 11.7595 65.3624 11.5122 65.2912 11.3045C65.2774 11.2643 65.2642 11.2255 65.2513 11.1888C65.1611 10.9308 65.0831 10.7401 64.9941 10.6143C64.9187 10.5078 64.881 10.5079 64.8586 10.5079L64.8571 10.5079L61.4523 10.508L59.5803 10.5079L58.9847 10.5079L58.8198 10.5079L58.7766 10.5079L58.7656 10.5079H58.7628H58.7621H58.7619ZM66.2702 11.5779C66.2702 11.5776 66.272 11.5755 66.2757 11.5723C66.2721 11.5766 66.2702 11.5782 66.2702 11.5779ZM66.4861 11.5723C66.4898 11.5755 66.4916 11.5776 66.4915 11.5779C66.4915 11.5782 66.4897 11.5766 66.4861 11.5723ZM66.4915 40.9459C66.4916 40.9462 66.4898 40.9483 66.4861 40.9515C66.4897 40.9472 66.4915 40.9456 66.4915 40.9459ZM66.2757 40.9515C66.2738 40.9498 66.2724 40.9485 66.2715 40.9475C66.2706 40.9466 66.2702 40.946 66.2702 40.9459C66.2702 40.9456 66.2721 40.9472 66.2757 40.9515Z" fill="white"/>
</g>
<defs>
<filter id="filter0_d" x="0" y="2.0238" width="65.7143" height="50.4762" filterUnits="userSpaceOnUse" color-interpolation-filters="sRGB">
<feFlood flood-opacity="0" result="BackgroundImageFix"/>
<feColorMatrix in="SourceAlpha" type="matrix" values="0 0 0 0 0 0 0 0 0 0 0 0 0 0 0 0 0 0 127 0"/>
<feOffset dy="1"/>
<feGaussianBlur stdDeviation="5"/>
<feColorMatrix type="matrix" values="0 0 0 0 0 0 0 0 0 0 0 0 0 0 0 0 0 0 0.3 0"/>
<feBlend mode="normal" in2="BackgroundImageFix" result="effect1_dropShadow"/>
<feBlend mode="normal" in="SourceGraphic" in2="effect1_dropShadow" result="shape"/>
</filter>
<filter id="filter1_d" x="48.7618" y="0.507935" width="35.2381" height="53.5079" filterUnits="userSpaceOnUse" color-interpolation-filters="sRGB">
<feFlood flood-opacity="0" result="BackgroundImageFix"/>
<feColorMatrix in="SourceAlpha" type="matrix" values="0 0 0 0 0 0 0 0 0 0 0 0 0 0 0 0 0 0 127 0"/>
<feOffset dy="1"/>
<feGaussianBlur stdDeviation="5"/>
<feColorMatrix type="matrix" values="0 0 0 0 0 0 0 0 0 0 0 0 0 0 0 0 0 0 0.7 0"/>
<feBlend mode="normal" in2="BackgroundImageFix" result="effect1_dropShadow"/>
<feBlend mode="normal" in="SourceGraphic" in2="effect1_dropShadow" result="shape"/>
</filter>
</defs>
</svg>
