<svg width="76" height="63" viewBox="0 0 76 63" fill="none" xmlns="http://www.w3.org/2000/svg">
<g filter="url(#filter0_d)">
<path d="M15.8869 55.4093H70.2499C60.3659 55.4093 59.8717 38.6062 70.2499 38.6062H15.8869C3.03745 38.6062 3.03763 55.4093 15.8869 55.4093Z" fill="white"/>
<path d="M15.8869 55.9093H70.2499V55.4093V54.9093C67.9369 54.9093 66.1931 53.9329 65.0094 52.4694C63.8163 50.9942 63.181 49.007 63.1515 47.0004C63.122 44.9937 63.6988 43.0125 64.8723 41.5438C66.0351 40.0885 67.8058 39.1062 70.2499 39.1062V38.6062V38.1062H15.8869C12.561 38.1062 10.0204 39.1963 8.309 40.8747C6.60171 42.5492 5.74987 44.7806 5.74988 47.0078C5.74989 49.2349 6.60175 51.4663 8.30905 53.1408C10.0204 54.8193 12.561 55.9093 15.8869 55.9093Z" stroke="#15293E"/>
</g>
<g filter="url(#filter1_d)">
<path d="M15.8869 38.6062H70.2499C60.3659 38.6062 59.8717 21.8031 70.2499 21.8031H15.8869C3.03745 21.8031 3.03763 38.6062 15.8869 38.6062Z" fill="white"/>
<path d="M15.8869 39.1062H70.2499V38.6062V38.1062C67.9369 38.1062 66.1931 37.1298 65.0094 35.6663C63.8163 34.1911 63.181 32.2039 63.1515 30.1973C63.122 28.1906 63.6988 26.2094 64.8723 24.7407C66.0351 23.2854 67.8058 22.3031 70.2499 22.3031V21.8031V21.3031H15.8869C12.561 21.3031 10.0204 22.3932 8.309 24.0716C6.60171 25.7461 5.74987 27.9775 5.74988 30.2047C5.74989 32.4318 6.60175 34.6632 8.30905 36.3377C10.0204 38.0162 12.561 39.1062 15.8869 39.1062Z" stroke="#15293E"/>
</g>
<g filter="url(#filter2_d)">
<path d="M15.8869 21.8031H70.2499C60.3659 21.8031 59.8717 5.00001 70.2499 5H15.8869C3.03745 5 3.03763 21.8031 15.8869 21.8031Z" fill="white"/>
<path d="M15.8869 22.3031H70.2499V21.8031V21.3031C67.9369 21.3031 66.1931 20.3267 65.0094 18.8632C63.8163 17.388 63.181 15.4008 63.1515 13.3942C63.122 11.3875 63.6988 9.4063 64.8723 7.9376C66.0351 6.48228 67.8058 5.5 70.2499 5.5V5V4.5H15.8869C12.561 4.5 10.0204 5.59006 8.309 7.26852C6.60171 8.943 5.74987 11.1744 5.74988 13.4016C5.74989 15.6287 6.60175 17.8601 8.30905 19.5346C10.0204 21.2131 12.561 22.3031 15.8869 22.3031Z" stroke="#15293E"/>
</g>
<path d="M31.6376 50.218V31.7032H19.2944V50.218L25.466 44.0464L31.6376 50.218Z" fill="#EEEEEE"/>
<defs>
<filter id="filter0_d" x="0.249878" y="33.6062" width="75" height="28.8031" filterUnits="userSpaceOnUse" color-interpolation-filters="sRGB">
<feFlood flood-opacity="0" result="BackgroundImageFix"/>
<feColorMatrix in="SourceAlpha" type="matrix" values="0 0 0 0 0 0 0 0 0 0 0 0 0 0 0 0 0 0 127 0"/>
<feOffset dy="1"/>
<feGaussianBlur stdDeviation="2.5"/>
<feColorMatrix type="matrix" values="0 0 0 0 0 0 0 0 0 0 0 0 0 0 0 0 0 0 0.2 0"/>
<feBlend mode="normal" in2="BackgroundImageFix" result="effect1_dropShadow"/>
<feBlend mode="normal" in="SourceGraphic" in2="effect1_dropShadow" result="shape"/>
</filter>
<filter id="filter1_d" x="0.249878" y="16.8031" width="75" height="28.8031" filterUnits="userSpaceOnUse" color-interpolation-filters="sRGB">
<feFlood flood-opacity="0" result="BackgroundImageFix"/>
<feColorMatrix in="SourceAlpha" type="matrix" values="0 0 0 0 0 0 0 0 0 0 0 0 0 0 0 0 0 0 127 0"/>
<feOffset dy="1"/>
<feGaussianBlur stdDeviation="2.5"/>
<feColorMatrix type="matrix" values="0 0 0 0 0 0 0 0 0 0 0 0 0 0 0 0 0 0 0.2 0"/>
<feBlend mode="normal" in2="BackgroundImageFix" result="effect1_dropShadow"/>
<feBlend mode="normal" in="SourceGraphic" in2="effect1_dropShadow" result="shape"/>
</filter>
<filter id="filter2_d" x="0.249878" y="0" width="75" height="28.8031" filterUnits="userSpaceOnUse" color-interpolation-filters="sRGB">
<feFlood flood-opacity="0" result="BackgroundImageFix"/>
<feColorMatrix in="SourceAlpha" type="matrix" values="0 0 0 0 0 0 0 0 0 0 0 0 0 0 0 0 0 0 127 0"/>
<feOffset dy="1"/>
<feGaussianBlur stdDeviation="2.5"/>
<feColorMatrix type="matrix" values="0 0 0 0 0 0 0 0 0 0 0 0 0 0 0 0 0 0 0.2 0"/>
<feBlend mode="normal" in2="BackgroundImageFix" result="effect1_dropShadow"/>
<feBlend mode="normal" in="SourceGraphic" in2="effect1_dropShadow" result="shape"/>
</filter>
</defs>
</svg>
