<svg width="66" height="53" viewBox="0 0 66 53" fill="none" xmlns="http://www.w3.org/2000/svg">
<path d="M10.8869 51.4093H65.2499C55.3659 51.4093 54.8717 34.6062 65.2499 34.6062H10.8869C-1.96255 34.6062 -1.96237 51.4093 10.8869 51.4093Z" fill="#A8B6C1" stroke="#15293E" stroke-width="1.5"/>
<path d="M10.8869 34.6062H65.2499C55.3659 34.6062 54.8717 17.8031 65.2499 17.8031H10.8869C-1.96255 17.8031 -1.96237 34.6062 10.8869 34.6062Z" fill="#A8B6C1" stroke="#15293E" stroke-width="1.5"/>
<path d="M10.8869 17.8031H65.2499C55.3659 17.8031 54.8717 1.00001 65.2499 1H10.8869C-1.96255 1 -1.96237 17.8031 10.8869 17.8031Z" fill="#A8B6C1" stroke="#15293E" stroke-width="1.5"/>
<path d="M26.6376 46.218V27.7032H14.2944V46.218L20.466 40.0464L26.6376 46.218Z" fill="white"/>
<path d="M11.2086 27.7032H14.2944M29.7234 27.7032H26.6376M26.6376 27.7032V46.218L20.466 40.0464L14.2944 46.218V27.7032M26.6376 27.7032H14.2944" stroke="#15293E" stroke-width="1.5" stroke-linecap="round" stroke-linejoin="round"/>
</svg>
