<svg width="54" height="65" viewBox="0 0 54 65" fill="none" xmlns="http://www.w3.org/2000/svg">
<path fill-rule="evenodd" clip-rule="evenodd" d="M18.047 34.57C17.7458 34.2857 17.2711 34.2994 16.9868 34.6006C16.7025 34.9019 16.7162 35.3766 17.0175 35.6609L26.8239 44.9164C27.1129 45.1891 27.5645 45.1891 27.8535 44.9164L37.6599 35.6609C37.9612 35.3766 37.9749 34.9019 37.6906 34.6006C37.4063 34.2994 36.9316 34.2857 36.6304 34.57L28.0887 42.6318V42.4149V42.3818V42.3484V42.3146V42.2804V42.2459V42.211V42.1758V42.1402V42.1043V42.068V41.9943V41.957V41.9193V41.8812V41.8428V41.8041V41.765V41.6857V41.6455V41.605V41.5642V41.523V41.4814V41.4395V41.3972V41.3546V41.3117V41.2684V41.2247V41.1807V41.1364V41.0917V41.0467V41.0013V40.9556V40.9096V40.8632V40.8164V40.7693V40.7219V40.6741V40.626V40.5775V40.5287V40.4796V40.4301V40.3803V40.3302V40.2288V40.1776V40.1261V40.0743V40.0221V39.9696V39.9167V39.8635V39.81V39.5925V39.1415V38.6694V38.4254V38.3636V38.3015V38.239V38.1762V38.1131V38.0497V37.9859V37.9218V37.8574V37.7927V37.7277V37.6623V37.5966V37.5306V37.4642V37.3976V37.3306V37.2633V37.1957V37.1277V37.0594V36.9909V36.922V36.8528V36.7832V36.7134V36.6432V36.5727V36.5019V36.4308V36.3594V36.2876V36.2156V36.1432V36.0705V35.9975V35.9242V35.8505V35.7766V35.7023V35.6278V35.5529V35.4777V35.4022V35.3264V35.2503V35.1738V35.0971V35.0201V34.9427V34.865V34.7871V32.1317V29.1739V29.0767V28.9792V28.8815V28.7835V28.6851V28.5866V28.4877V28.3885V28.2891V28.1894V28.0894V27.9891V27.8886V27.7877V27.6866V27.5853V27.4836V27.3816V27.2794V27.1769V27.0742V26.9711V26.8678V26.7642V26.6603V26.5562V26.4518V26.3471V26.2421V26.1369V26.0313V25.9256V25.8195V25.7132V25.6066V25.4997V25.3926V25.2851V25.1775V25.0695V24.9613V24.8528V24.7441V24.635V24.5257V24.4162V24.3064V24.1963V24.0859V23.9753V23.8644V23.7533V23.6419V23.5302V23.4182V23.306V23.1936V23.0808V22.9678V22.8546V22.7411V22.6273V22.5132V22.399V22.2844V22.1696V22.0545V21.9392V21.8236V21.7077V21.5916V21.4752V21.3586V21.2417V21.1246V21.0072V20.8896V20.7717V20.6535V20.5351V20.4164V20.2975V20.1783V20.0589V19.9392V19.8193V19.6991V19.5787V19.458V19.337V19.2159V19.0944V18.9727V18.8508V18.7286V18.6062V18.4835V18.3606V18.2374V18.114V17.9903V17.8664V17.7422V17.6178V17.4932V17.3683V17.2431V17.1178V16.6138V14.5594V13.5094V12.9788V12.8456V12.7121V12.5784V12.4445V10.2707V10.1329V9.99489V9.85666V9.7182V9.57952V9.44062V9.16214V8.03942V7.4728V7.18819V7.04556V6.90272V6.75965V6.61638V6.47289V6.32918V6.18526V6.04113V5.89678V5.75222V4.58813V4.44167V4.295V4.14812V4.00104V3.85374V3.70624V3.55853V3.41061V1.01611C28.0887 0.601902 27.7529 0.266113 27.3387 0.266113C26.9245 0.266113 26.5887 0.601902 26.5887 1.01611V3.41061V3.55853V3.70624V3.85374V4.00104V4.14812V4.295V4.44167V4.58813V5.75222V5.89678V6.04113V6.18526V6.32918V6.47289V6.61638V6.75965V6.90272V7.04556V7.18819V7.4728V8.03942V9.16214V9.44062V9.57952V9.7182V9.85666V9.99489V10.1329V10.2707V10.4083V10.5456V10.6827V10.8196V10.9563V11.0927V11.3649V11.6362V11.7715V11.9065V12.0414V12.176V12.3104V12.4445V12.5784V12.7121V12.8456V12.9788V13.5094V14.5594V16.6138V17.1178V17.2431V17.3683V17.4932V17.6178V17.7422V17.8664V17.9903V18.114V18.2374V18.3606V18.4835V18.6062V18.7286V18.8508V18.9727V19.0944V19.2159V19.337V19.458V19.5787V19.6991V19.8193V19.9392V20.0589V20.1783V20.2975V20.4164V20.5351V20.6535V20.7717V20.8896V21.0072V21.1246V21.2417V21.3586V21.4752V21.5916V21.7077V21.8236V21.9392V22.0545V22.1696V22.2844V22.399V22.5132V22.6273V22.7411V22.8546V22.9678V23.0808V23.1936V23.306V23.4182V23.5302V23.6419V23.7533V23.8644V23.9753V24.0859V24.1963V24.3064V24.4162V24.5257V24.635V24.7441V24.8528V24.9613V25.0695V25.1775V25.2851V25.3926V25.4997V25.6066V25.7132V25.8195V25.9256V26.0313V26.1369V26.2421V26.3471V26.4518V26.5562V26.6603V26.7642V26.8678V26.9711V27.0742V27.1769V27.2794V27.3816V27.4836V27.5853V27.6866V27.7877V27.8886V27.9891V28.0894V28.1894V28.2891V28.3885V28.4877V28.5866V28.6851V28.7835V28.8815V28.9792V29.0767V29.1739V29.2708V29.3674V29.4637V29.5597V29.6555V29.7509V29.8461V29.941V30.0356V30.13V30.224V30.3177V30.6899V31.0573V31.1485V31.2393V31.3299V31.4202V31.5101V31.5998V31.6892V31.7783V31.8671V31.9556V32.0438V32.1317V32.2194V32.3067V32.3937V32.4805V32.5669V32.653V32.7389V32.8244V32.9097V32.9946V33.0793V33.1636V33.498V33.8275V33.9092V33.9905V34.0715V34.1523V34.2327V34.3128V34.3926V34.4721V34.5513V34.6302V34.7088V34.7871V34.865V34.9427V35.0201V35.0971V35.1738V35.2503V35.3264V35.4022V35.4777V35.5529V35.6278V35.7023V35.7766V35.8505V35.9242V35.9975V36.0705V36.1432V36.2156V36.2876V36.3594V36.4308V36.5019V36.5727V36.6432V36.7134V36.7832V36.8528V36.922V36.9909V37.0594V37.1277V40.8164V40.8632V40.9096V40.9556V41.0013V41.0917V41.1364V41.1807V41.2247V41.2684V41.3117V41.3546V41.4395V41.4814V41.523V41.5642V41.605V41.6455V41.6857V41.765V41.8041V41.8428V41.8812V41.9193V41.957V41.9943V42.0313V42.068V42.1043V42.1402V42.1758V42.211V42.2459V42.2804V42.3146V42.3484V42.3818V42.4149V42.6318L18.047 34.57ZM47.3693 23.8327C50.2116 27.8961 51.879 32.8409 51.879 38.1774C51.879 52.0157 40.6609 63.2339 26.8226 63.2339C12.9843 63.2339 1.76611 52.0157 1.76611 38.1774C1.76611 32.8409 3.43354 27.8961 6.27585 23.8327L5.0467 22.9729C2.03383 27.2802 0.266113 32.5235 0.266113 38.1774C0.266113 52.8441 12.1558 64.7339 26.8226 64.7339C41.4893 64.7339 53.379 52.8441 53.379 38.1774C53.379 32.5235 51.6113 27.2802 48.5984 22.9729L47.3693 23.8327Z" fill="#15293E"/>
</svg>
