<svg width="66" height="66" viewBox="0 0 66 66" fill="none" xmlns="http://www.w3.org/2000/svg">
<path fill-rule="evenodd" clip-rule="evenodd" d="M32.7655 61.5C48.5056 61.5 61.2655 48.7401 61.2655 33C61.2655 33 36.9655 25.5 32.7655 4.5C17.0254 4.5 4.2655 17.2599 4.2655 33C4.2655 48.7401 17.0254 61.5 32.7655 61.5ZM25.9655 25.5C25.9655 27.7091 24.1746 29.5 21.9655 29.5C19.7563 29.5 17.9655 27.7091 17.9655 25.5C17.9655 23.2909 19.7563 21.5 21.9655 21.5C24.1746 21.5 25.9655 23.2909 25.9655 25.5ZM30.4586 38.6429L40.653 29.4062L50.9655 44.5H36.528H30.3405H18.653L27.5905 35.875L30.4586 38.6429Z" fill="#A8B6C1"/>
<path d="M65 33C65 50.6731 50.6731 65 33 65C15.3269 65 0.999989 50.6731 0.999989 33C0.999989 15.3269 15.3269 1 33 1M65 33L33 1M65 33C55 33 33 18.5 33 1" stroke="#15293E" stroke-width="1.5"/>
</svg>
