<svg width="64" height="35" viewBox="0 0 64 35" fill="none" xmlns="http://www.w3.org/2000/svg">
<path d="M22.0106 32.1245H25.9612L14.8409 2.0238H11.1202L0 32.1245H3.95061L6.98151 23.5094H18.9797L22.0106 32.1245ZM12.9179 6.5921H13.0433L17.8718 20.3178H8.08935L12.9179 6.5921Z" fill="#15293E"/>
<path d="M36.0154 29.4127C33.4025 29.4127 31.6676 28.0568 31.6676 25.9917C31.6676 23.9475 33.3398 22.6541 36.2662 22.4664L42.0772 22.1118V23.8849C42.0772 27.0138 39.4434 29.4127 36.0154 29.4127ZM35.2002 32.5C38.1266 32.5 40.8857 30.8729 42.1817 28.3906H42.2653V32.1245H45.7143V17.1263C45.7143 12.8083 42.4952 10.0548 37.395 10.0548C32.2529 10.0548 29.0339 12.9335 28.783 16.6882H32.2947C32.7546 14.5605 34.5104 13.2464 37.3114 13.2464C40.3214 13.2464 42.0772 14.8317 42.0772 17.4809V19.2957L35.8482 19.6503C30.8315 19.9424 27.9678 22.2787 27.9678 25.9917C27.9678 29.8925 30.8733 32.5 35.2002 32.5Z" fill="#15293E"/>
<path fill-rule="evenodd" clip-rule="evenodd" d="M48.7619 1.50793L48.7618 1.00793L48.7619 0.507935H48.7621H48.7628H48.7656H48.7766H48.8198L48.9847 0.507937L49.5803 0.507943L51.4523 0.507956L54.857 0.507935C55.311 0.507907 55.6177 0.764477 55.8103 1.03649C55.9908 1.2916 56.1079 1.60878 56.1953 1.85873C56.2134 1.91042 56.2302 1.95936 56.2462 2.00574L56.2463 2.00594L56.2464 2.00609C56.2968 2.15227 56.3384 2.27298 56.3809 2.37381C56.4233 2.27298 56.465 2.15228 56.5154 2.0061C56.5314 1.95962 56.5484 1.91056 56.5665 1.85874C56.6539 1.60879 56.7709 1.29162 56.9515 1.0365C57.1441 0.764492 57.4507 0.507921 57.9047 0.507935L61.3094 0.507946L63.1815 0.507939L63.7771 0.507935H63.9419H63.9851H63.9962H63.999H63.9997H63.9999L63.9999 1.00793L63.9999 1.50793H63.9997H63.999H63.9962H63.9851L63.9419 1.50793L63.7771 1.50794L63.1815 1.50794L61.3095 1.50795L57.9047 1.50793L57.9032 1.50793C57.8808 1.50787 57.8431 1.50777 57.7677 1.61427C57.6786 1.7401 57.6006 1.93086 57.5104 2.18885C57.4976 2.22548 57.4843 2.26427 57.4705 2.30455C57.3994 2.51218 57.3147 2.75949 57.2121 2.95473C57.1482 3.07631 57.0431 3.24447 56.8809 3.3693V31.1545C57.0431 31.2793 57.1482 31.4475 57.2121 31.5691C57.3147 31.7643 57.3994 32.0116 57.4705 32.2192C57.4843 32.2595 57.4976 32.2983 57.5104 32.3349C57.6006 32.5929 57.6786 32.7837 57.7677 32.9095C57.8431 33.016 57.8808 33.0159 57.9031 33.0159L57.9047 33.0159L61.3095 33.0158L63.1815 33.0158L63.7771 33.0158L63.9419 33.0159H63.9851H63.9962H63.999H63.9997H63.9999L63.9999 33.5159L63.9999 34.0159H63.9997H63.999H63.9962H63.9851H63.9419L63.7771 34.0158L63.1815 34.0158L61.3094 34.0158L57.9047 34.0159C57.4507 34.0159 57.1441 33.7593 56.9515 33.4873C56.7709 33.2322 56.6539 32.915 56.5665 32.6651C56.5484 32.6132 56.5314 32.5642 56.5154 32.5177C56.465 32.3715 56.4233 32.2508 56.3809 32.15C56.3384 32.2508 56.2968 32.3715 56.2464 32.5177C56.2303 32.5642 56.2134 32.6132 56.1953 32.665C56.1079 32.915 55.9908 33.2322 55.8103 33.4873C55.6177 33.7593 55.3111 34.0159 54.8571 34.0159L51.4523 34.0158L49.5803 34.0158H48.9847L48.8198 34.0159H48.7766H48.7656H48.7628H48.7621H48.7619L48.7618 33.5159L48.7619 33.0159H48.7621H48.7628H48.7656H48.7766H48.8198L48.9847 33.0158H49.5803L51.4523 33.0158L54.8571 33.0159L54.8586 33.0159C54.881 33.0159 54.9187 33.016 54.9941 32.9095C55.0831 32.7837 55.1611 32.5929 55.2513 32.3349C55.2642 32.2983 55.2774 32.2595 55.2912 32.2192C55.3624 32.0116 55.4471 31.7643 55.5497 31.5691C55.6135 31.4475 55.7187 31.2793 55.8809 31.1545V3.3693C55.7187 3.24447 55.6135 3.0763 55.5497 2.95472C55.4471 2.75949 55.3624 2.51218 55.2912 2.30455C55.2774 2.26426 55.2642 2.22547 55.2513 2.18884C55.1611 1.93084 55.0831 1.74008 54.9941 1.61426C54.9187 1.50777 54.881 1.50787 54.8586 1.50793L54.8571 1.50793L51.4523 1.50796L49.5803 1.50794L48.9847 1.50794L48.8198 1.50794L48.7766 1.50793L48.7656 1.50793H48.7628H48.7621H48.7619ZM56.2702 2.57789C56.2702 2.5776 56.272 2.57545 56.2757 2.57231C56.2721 2.5766 56.2702 2.57818 56.2702 2.57789ZM56.4861 2.57231C56.4898 2.57545 56.4916 2.5776 56.4915 2.57789C56.4915 2.57818 56.4897 2.5766 56.4861 2.57231ZM56.4915 31.9459C56.4916 31.9462 56.4898 31.9483 56.4861 31.9515C56.4897 31.9472 56.4915 31.9456 56.4915 31.9459ZM56.2757 31.9515C56.2738 31.9498 56.2724 31.9485 56.2715 31.9475C56.2706 31.9466 56.2702 31.946 56.2702 31.9459C56.2702 31.9456 56.2721 31.9472 56.2757 31.9515Z" fill="#A8B5C2"/>
</svg>
